<?xml version="1.0" encoding="UTF-8"?> <svg xmlns="http://www.w3.org/2000/svg" width="1080" height="1080" viewBox="0 0 1080 1080" fill="none"> <rect width="1080" height="1080" fill="black"></rect> <path fill-rule="evenodd" clip-rule="evenodd" d="M186.213 447.213C174.497 435.497 174.497 416.503 186.213 404.787L427.337 163.663C439.052 151.948 458.047 151.948 469.763 163.663L516.432 210.332L516.704 210.604L516.954 210.896C652.071 368.541 725.33 458.694 809.646 630.825L868.571 689.751C884.192 705.372 884.192 730.698 868.571 746.319L861.5 753.39L776.647 838.243L768.869 846.021C753.248 861.642 727.922 861.642 712.301 846.021L653.297 787.017C474.567 694.656 384.738 626.456 233.378 494.345L233.122 494.122L232.882 493.882L186.213 447.213ZM673.41 778.846L726.443 831.879C734.253 839.69 746.917 839.69 754.727 831.879L755.943 830.664C735.773 803.643 737.961 765.207 762.505 740.663L763.919 739.248C788.464 714.704 826.9 712.516 853.92 732.686L854.429 732.177C862.24 724.367 862.24 711.703 854.429 703.893L801.396 650.86L673.41 778.846ZM789.267 634.704C708.565 471.046 637.832 382.844 508.794 232.113L254.597 486.309C398.861 611.859 487.019 678.169 657.369 766.603L789.267 634.704ZM239.953 472.669L200.355 433.071C196.45 429.166 196.45 422.834 200.355 418.929L222.983 396.302L269.652 442.971L239.953 472.669ZM283.794 428.828L314.907 397.716L268.238 351.047L237.125 382.159L283.794 428.828ZM360.161 352.461L329.049 383.574L282.38 336.905L313.492 305.792L360.161 352.461ZM374.304 338.319L405.416 307.206L358.747 260.537L327.635 291.65L374.304 338.319ZM450.671 261.951L419.558 293.064L372.889 246.395L404.002 215.282L450.671 261.951ZM464.813 247.809L418.144 201.14L441.479 177.806C445.384 173.9 451.716 173.9 455.621 177.806L495.219 217.404L464.813 247.809ZM839.565 747.041C820.556 734.562 794.774 736.678 778.062 753.39L776.647 754.805C759.935 771.517 757.819 797.299 770.298 816.308L839.565 747.041ZM389.153 481.861C380.561 490.453 380.561 504.383 389.153 512.974L448.55 572.371C457.141 580.963 471.071 580.963 479.663 572.371L596.335 455.698C604.927 447.107 604.927 433.177 596.335 424.586L536.938 365.189C528.347 356.597 514.417 356.597 505.825 365.189L389.153 481.861ZM403.295 498.832C402.514 498.051 402.514 496.785 403.295 496.004L519.968 379.331C520.749 378.55 522.015 378.55 522.796 379.331L582.193 438.728C582.974 439.509 582.974 440.775 582.193 441.556L465.52 558.229C464.739 559.01 463.473 559.01 462.692 558.229L403.295 498.832Z" fill="white"></path> </svg> 