<?xml version="1.0" encoding="UTF-8"?> <svg xmlns="http://www.w3.org/2000/svg" width="1080" height="1080" viewBox="0 0 1080 1080" fill="none"> <rect width="1080" height="1080" fill="black"></rect> <path fill-rule="evenodd" clip-rule="evenodd" d="M268 199C268 166.415 294.415 140 327 140H551C583.585 140 610 166.415 610 199V213H703.132L844.414 243.289C858.114 246.226 858.114 265.774 844.414 268.711L703.132 299H610V314C610 341.667 590.957 364.886 565.263 371.264L560.277 375.285C545.417 387.266 523.356 411.982 505.013 440.972C503.124 443.958 501.286 446.97 499.509 450L500.254 453.295L526.935 571.327C529.513 582.73 525.232 594.592 515.965 601.72L474.097 633.926L473 634.77V733C473 754.539 455.539 772 434 772H416V920C416 931.046 407.046 940 396 940C384.954 940 376 931.046 376 920V772H365C343.461 772 326 754.539 326 733V372.992C293.876 372.458 268 346.251 268 314V199ZM610 279V233H701.012L808.295 256L701.012 279H610ZM473 609.538L503.771 585.868C506.86 583.492 508.287 579.538 507.428 575.737L485.287 477.792C477.678 495.366 473 512.652 473 528V532V537.562V538V562.5V609.538ZM434 752H396H379L379 447C379 441.477 374.523 437 369 437C363.477 437 359 441.477 359 447L359 751.033C351.447 748.521 346 741.397 346 733V373H463H533.199C518.725 387.607 502.266 407.908 488.112 430.278C469.043 460.415 453 496.11 453 528V532V537.562V538V562.5V733C453 743.493 444.493 752 434 752ZM551 353H463H336H327C305.461 353 288 335.539 288 314V199C288 180.203 301.298 164.512 319 160.821L319 248C319 253.523 323.477 258 329 258C334.523 258 339 253.523 339 248L339 160H350V202C350 207.523 354.477 212 360 212C365.523 212 370 207.523 370 202V160H551C572.539 160 590 177.461 590 199V314C590 335.539 572.539 353 551 353Z" fill="white"></path> </svg> 