<?xml version="1.0" encoding="UTF-8"?> <svg xmlns="http://www.w3.org/2000/svg" width="1080" height="1080" viewBox="0 0 1080 1080" fill="none"> <rect width="1080" height="1080" fill="black"></rect> <path fill-rule="evenodd" clip-rule="evenodd" d="M593.055 250.47C583.489 255.993 580.212 268.225 585.734 277.791L586.296 278.763C593.652 271.411 602.079 264.89 611.514 259.443C621.263 253.814 631.467 249.69 641.858 246.999L641.16 245.791C635.637 236.225 623.405 232.947 613.84 238.47L593.055 250.47ZM568.414 287.791L572.625 295.085C571.728 296.372 570.856 297.675 570.012 298.992L399.593 397.384L312.312 447.775C311.117 447.831 309.921 447.904 308.725 447.996L304.276 440.291C293.23 421.159 268.767 414.604 249.635 425.65L228.851 437.65C209.719 448.695 203.164 473.159 214.21 492.291L218.421 499.585C192.296 537.049 188.491 587.746 212.838 629.915C220.21 642.684 229.551 653.609 240.255 662.528L310.775 858.682C322.121 890.24 354.006 909.551 387.23 904.986C420.716 900.385 446.312 872.809 448.409 839.073L459.501 660.632C469.761 661.66 480.429 659.595 490.042 654.046C505.479 645.133 514.494 629.368 515.463 612.81L543.493 596.627C548.276 593.866 549.915 587.75 547.154 582.967C544.392 578.184 538.276 576.545 533.493 579.307L512.169 591.618C511.221 589.156 510.07 586.735 508.709 584.378C494.719 560.147 463.846 551.739 439.526 565.435C438.947 546.003 433.683 526.43 423.282 508.415C405.969 478.428 377.804 458.613 346.611 451.067L402.757 418.651L443.419 461.612C451.692 470.352 464.881 472.273 475.302 466.256L490.345 457.571L505.388 448.886C515.809 442.869 520.74 430.487 517.307 418.953L500.434 362.257L555.713 330.342C546.652 361.128 549.729 395.428 567.042 425.415C577.448 443.437 591.773 457.786 608.32 468.005C584.956 482.438 577.157 512.934 590.981 536.878C592.342 539.235 593.863 541.443 595.522 543.495L573.331 556.307C568.548 559.068 566.909 565.184 569.67 569.967C572.432 574.75 578.548 576.388 583.331 573.627L612.227 556.944C627.051 564.383 645.211 564.458 660.649 555.546C671.17 549.471 678.708 540.214 682.749 529.692L844.734 610.254C874.999 625.306 911.679 616.927 932.407 590.228C952.972 563.738 952.191 526.47 930.533 500.865L920.616 489.14L899.699 464.41L889.24 452.046L884.011 445.863C880.444 441.647 874.135 441.12 869.918 444.686C865.701 448.253 865.174 454.563 868.741 458.779L873.97 464.962L884.429 477.326L905.346 502.056L915.263 513.781C930.818 532.171 931.379 558.938 916.609 577.964C901.721 597.139 875.377 603.157 853.641 592.347L686.105 509.024C685.748 501.165 683.562 493.272 679.376 485.983C697.691 484.924 716.043 479.685 733.014 469.887C770.299 448.36 791.859 410.056 793.661 370.016L821.677 403.138L832.136 415.503L837.365 421.685C840.932 425.902 847.241 426.429 851.458 422.862C855.675 419.295 856.202 412.986 852.635 408.769L847.406 402.587L836.947 390.222L795.113 340.763C793.918 339.35 792.415 338.351 790.786 337.782C788.15 326.175 783.75 314.763 777.486 303.915C753.337 262.086 708.072 240.05 662.929 243.496L658.481 235.791C647.435 216.659 622.971 210.104 603.84 221.15L583.055 233.15C563.923 244.195 557.368 268.659 568.414 287.791ZM329.596 851.916L267.698 679.746C302.195 695.421 343.493 694.777 378.81 674.387C396.127 664.388 410.052 650.771 420.181 635.041C420.218 635.106 420.255 635.171 420.292 635.235L420.374 635.378C425.185 643.711 431.992 650.172 439.843 654.507L428.447 837.832C426.941 862.062 408.558 881.868 384.507 885.173C360.645 888.451 337.745 874.582 329.596 851.916ZM232.092 483.263L231.53 482.291C226.007 472.725 229.285 460.493 238.851 454.97L259.635 442.97C269.201 437.447 281.433 440.725 286.956 450.291L287.653 451.499C277.262 454.19 267.058 458.314 257.31 463.942C247.875 469.39 239.447 475.911 232.092 483.263ZM267.31 481.263C218.763 509.291 202.13 571.368 230.158 619.915C258.187 668.461 320.263 685.095 368.81 657.066C391.034 644.235 406.57 624.268 414.195 601.731C414.799 598.015 415.81 594.373 417.211 590.877C422.441 567.027 419.132 541.227 405.961 518.415C377.933 469.868 315.857 453.235 267.31 481.263ZM635.197 480.373C639.999 481.91 644.894 483.149 649.851 484.082C654.754 486.716 659.008 490.704 661.995 495.878C670.556 510.705 665.476 529.665 650.649 538.225C635.821 546.786 616.862 541.705 608.302 526.878C599.741 512.051 604.821 493.092 619.649 484.532C624.554 481.699 629.913 480.36 635.197 480.373ZM656.086 464.87C678.352 468.479 701.956 464.724 723.014 452.566C771.561 424.538 788.194 362.461 760.166 313.915C732.137 265.368 670.061 248.735 621.514 276.763C572.968 304.791 556.334 366.868 584.363 415.415C597.032 437.359 616.658 452.782 638.847 460.508C644.803 460.946 650.643 462.425 656.086 464.87ZM437.695 625.378C434.228 619.374 432.999 612.693 433.747 606.299C434.724 603.252 435.581 600.168 436.316 597.054C438.896 591.362 443.217 586.394 449.042 583.032C463.869 574.471 482.828 579.551 491.388 594.378C499.949 609.205 494.869 628.165 480.042 636.725C465.214 645.286 446.255 640.205 437.695 625.378ZM420.564 408.37L457.945 447.864C459.854 449.881 462.897 450.324 465.302 448.936L480.345 440.251L495.388 431.566C497.793 430.177 498.931 427.32 498.138 424.658L482.626 372.538L420.564 408.37ZM641.421 332.242C638.383 326.981 640.186 320.254 645.447 317.216C650.708 314.179 657.436 315.981 660.473 321.242C663.511 326.504 661.708 333.231 656.447 336.269C651.186 339.306 644.458 337.504 641.421 332.242ZM635.447 299.896C620.62 308.456 615.54 327.415 624.1 342.242C632.661 357.07 651.62 362.15 666.447 353.589C681.274 345.029 686.354 326.07 677.794 311.242C669.234 296.415 650.274 291.335 635.447 299.896ZM685.421 408.453C682.383 403.191 684.186 396.464 689.447 393.426C694.708 390.389 701.436 392.191 704.473 397.453C707.511 402.714 705.708 409.441 700.447 412.479C695.186 415.517 688.458 413.714 685.421 408.453ZM679.447 376.106C664.62 384.666 659.54 403.626 668.1 418.453C676.661 433.28 695.62 438.36 710.447 429.8C725.274 421.239 730.354 402.28 721.794 387.453C713.234 372.626 694.274 367.546 679.447 376.106ZM625.316 392.348C628.353 397.609 635.081 399.411 640.342 396.374C645.603 393.336 647.406 386.609 644.368 381.348C641.331 376.086 634.603 374.284 629.342 377.321C624.081 380.359 622.278 387.086 625.316 392.348ZM650.342 413.694C635.515 422.255 616.556 417.175 607.995 402.348C599.435 387.521 604.515 368.561 619.342 360.001C634.169 351.44 653.128 356.521 661.689 371.348C670.249 386.175 665.169 405.134 650.342 413.694ZM716.552 352.374C711.291 355.411 704.564 353.609 701.526 348.348C698.488 343.086 700.291 336.359 705.552 333.321C710.814 330.284 717.541 332.086 720.579 337.348C723.616 342.609 721.814 349.336 716.552 352.374ZM684.206 358.348C692.766 373.175 711.725 378.255 726.552 369.694C741.379 361.134 746.46 342.175 737.899 327.348C729.339 312.521 710.379 307.44 695.552 316.001C680.725 324.561 675.645 343.521 684.206 358.348ZM287.217 536.742C284.179 531.481 285.982 524.754 291.243 521.716C296.504 518.679 303.232 520.481 306.269 525.742C309.307 531.004 307.504 537.731 302.243 540.769C296.982 543.806 290.254 542.004 287.217 536.742ZM281.243 504.396C266.416 512.956 261.336 531.915 269.896 546.742C278.456 561.57 297.416 566.65 312.243 558.089C327.07 549.529 332.15 530.57 323.59 515.742C315.029 500.915 296.07 495.835 281.243 504.396ZM331.217 612.953C328.179 607.691 329.982 600.964 335.243 597.926C340.504 594.889 347.232 596.691 350.269 601.953C353.307 607.214 351.504 613.941 346.243 616.979C340.982 620.017 334.254 618.214 331.217 612.953ZM325.243 580.606C310.416 589.166 305.336 608.126 313.896 622.953C322.456 637.78 341.416 642.86 356.243 634.299C371.07 625.739 376.15 606.78 367.59 591.953C359.029 577.126 340.07 572.046 325.243 580.606ZM271.111 596.848C274.149 602.109 280.877 603.911 286.138 600.874C291.399 597.836 293.202 591.109 290.164 585.848C287.126 580.586 280.399 578.784 275.138 581.821C269.877 584.859 268.074 591.586 271.111 596.848ZM296.138 618.194C281.311 626.755 262.351 621.675 253.791 606.848C245.231 592.021 250.311 573.061 265.138 564.501C279.965 555.94 298.924 561.021 307.485 575.848C316.045 590.675 310.965 609.634 296.138 618.194ZM362.348 556.874C357.087 559.911 350.359 558.109 347.322 552.848C344.284 547.586 346.087 540.859 351.348 537.821C356.609 534.784 363.337 536.586 366.374 541.848C369.412 547.109 367.609 553.836 362.348 556.874ZM330.001 562.848C338.562 577.675 357.521 582.755 372.348 574.194C387.175 565.634 392.255 546.675 383.695 531.848C375.134 517.021 356.175 511.94 341.348 520.501C326.521 529.061 321.441 548.021 330.001 562.848ZM506.886 509.221C509.923 514.482 516.651 516.285 521.912 513.247C527.173 510.209 528.976 503.482 525.938 498.221C522.901 492.959 516.173 491.157 510.912 494.194C505.651 497.232 503.848 503.959 506.886 509.221ZM531.912 530.567C517.085 539.128 498.126 534.048 489.565 519.221C481.005 504.394 486.085 485.434 500.912 476.874C515.739 468.313 534.698 473.394 543.259 488.221C551.819 503.048 546.739 522.007 531.912 530.567Z" fill="white"></path> </svg> 