<?xml version="1.0" encoding="UTF-8"?> <svg xmlns="http://www.w3.org/2000/svg" width="1080" height="1080" viewBox="0 0 1080 1080" fill="none"> <g clip-path="url(#clip0_125:2)"> <rect width="1080" height="1080" fill="black"></rect> <path fill-rule="evenodd" clip-rule="evenodd" d="M277.099 588.099C297.406 608.406 330.331 608.406 350.638 588.099L432.663 506.075L485.972 559.384C473.586 579.432 476.087 606.068 493.474 623.454L726.465 856.446C769.228 899.208 838.559 899.208 881.322 856.446C924.084 813.684 924.084 744.352 881.322 701.59L648.33 468.598C630.943 451.211 604.307 448.711 584.26 461.097L530.95 407.787L651.158 287.579C671.466 267.271 671.466 234.347 651.158 214.04L593.883 156.764C585.203 148.084 571.515 148.396 562.899 156.267C511.487 203.232 450.424 220.371 406.937 205.366C383.974 197.442 352.157 194.843 331.546 215.454L154.77 392.23C134.462 412.538 134.462 445.462 154.77 465.77L277.099 588.099ZM516.808 421.929L446.805 491.932L499.131 544.258L569.134 474.255L516.808 421.929ZM336.496 573.957C323.999 586.454 303.738 586.454 291.241 573.957L168.912 451.627C156.415 439.131 156.415 418.869 168.912 406.373L185.725 389.559L353.309 557.144L336.496 573.957ZM345.688 229.596L199.867 375.417L367.451 543.002L637.016 273.436C649.513 260.94 649.513 240.678 637.016 228.182L579.741 170.906C579.048 170.213 577.559 169.964 576.388 171.033C521.856 220.848 453.332 242.532 400.413 224.272C379.521 217.063 357.881 217.403 345.688 229.596ZM507.616 609.312C495.119 596.815 495.119 576.554 507.616 564.057L588.933 482.74C601.43 470.243 621.691 470.243 634.188 482.74L867.18 715.732C902.132 750.684 902.132 807.352 867.18 842.304C854.17 855.314 838.151 863.481 821.363 866.806L548.709 594.152C544.804 590.247 538.473 590.247 534.567 594.152C530.662 598.057 530.662 604.389 534.567 608.294L794.276 868.003C774.673 865.896 755.634 857.33 740.608 842.304L507.616 609.312Z" fill="white"></path> </g> <defs> <clipPath id="clip0_125:2"> <rect width="1080" height="1080" fill="white"></rect> </clipPath> </defs> </svg> 