<?xml version="1.0" encoding="UTF-8"?> <svg xmlns="http://www.w3.org/2000/svg" width="1080" height="1080" viewBox="0 0 1080 1080" fill="none"> <rect width="1080" height="1080" fill="black"></rect> <path fill-rule="evenodd" clip-rule="evenodd" d="M295.535 229.576C284.174 236.564 280.071 242.52 279.192 246.723C280.964 245.34 282.813 244.009 284.72 242.727C299.664 232.688 320.631 224.04 345.641 216.934C395.799 202.682 464.512 194 540 194C615.488 194 684.201 202.682 734.359 216.934C759.369 224.04 780.336 232.688 795.28 242.727C797.187 244.009 799.036 245.34 800.808 246.723C799.929 242.52 795.826 236.564 784.465 229.576C771.954 221.881 753.186 214.591 729.108 208.327C681.103 195.838 614.239 188 540 188C465.761 188 398.897 195.838 350.892 208.327C326.814 214.591 308.046 221.881 295.535 229.576ZM259 248.5C259 252.197 259 259 259 259V281V761.5V781C259 781 259 788.259 259 792C259 810.873 268.38 827.903 283.34 842.39C298.27 856.848 319.351 869.407 344.584 879.743C395.098 900.433 464.194 913 540 913C615.806 913 684.902 900.433 735.416 879.743C760.649 869.407 781.73 856.848 796.66 842.39C811.62 827.903 821 810.873 821 792C821 788.259 821 781 821 781V761.5V281V259C821 259 821 252.197 821 248.5C821 233.242 809.297 221.369 794.942 212.54C780.026 203.366 759.108 195.465 734.144 188.971C684.066 175.944 615.43 168 540 168C464.57 168 395.934 175.944 345.856 188.971C320.892 195.465 299.974 203.366 285.058 212.54C270.703 221.369 259 233.242 259 248.5ZM279 761.5V315.127C280.831 316.563 282.744 317.945 284.72 319.273C286.096 320.197 287.523 321.11 289 322.01V787.827C282.196 778.942 279 770.099 279 761.5ZM309 806.642C320.427 814.925 334.914 822.704 352.12 829.656C382.427 841.902 420.377 851.264 463.029 856.448C395.324 772.928 380.613 751.611 331.629 680.629L331.625 680.623L331.62 680.616C324.818 670.76 317.356 659.947 309 647.877V806.642ZM488.176 855.691L491.021 859.189C496.222 859.578 501.479 859.907 506.786 860.174C423.504 760.844 379.127 697.878 309 593.105V612.788L312.131 617.295C326.171 637.507 337.901 654.506 348.124 669.319L348.125 669.321L348.126 669.322C399.186 743.313 412.609 762.764 488.176 855.691ZM540 861C537.861 861 535.729 860.99 533.603 860.97L531.558 858.548C525.801 851.732 520.231 845.093 514.826 838.608C522.682 839.067 532.082 839.5 539.668 839.5C547.424 839.5 557.076 839.047 565.035 838.577C559.623 845.072 554.044 851.721 548.278 858.548L546.231 860.971C544.16 860.99 542.083 861 540 861ZM588.804 859.202C583.604 859.59 578.349 859.917 573.042 860.182C656.394 760.771 700.776 697.782 771 592.86V612.551L767.705 617.295C753.668 637.503 741.939 654.5 731.718 669.311L731.71 669.322C680.65 743.312 667.226 762.764 591.659 855.691L588.804 859.202ZM767.6 561.95L771 556.854V394.132L723.11 443.507L750.642 467.175C758.278 473.739 759.843 484.957 754.294 493.361L676.164 611.698C672.994 616.499 667.897 619.765 662.045 620.492C656.161 621.223 644.807 622.59 630.703 624.063L626.072 627.79L549.216 689.65C542.497 695.058 532.887 694.94 526.303 689.369L453.343 627.634L449.154 624.09C434.933 622.606 423.479 621.228 417.56 620.492C411.708 619.765 406.61 616.499 403.44 611.698L325.31 493.361C319.762 484.957 321.327 473.739 328.963 467.175L356.318 443.659L309 394.873V557.099L312.236 561.95C382.48 667.225 425.25 729.457 497.244 817.333L499.721 817.532L499.723 817.532L499.735 817.533L499.784 817.537L499.987 817.553C500.167 817.568 500.435 817.589 500.784 817.615C501.481 817.669 502.499 817.746 503.772 817.839C506.319 818.024 509.881 818.271 513.932 818.519C522.093 819.016 532.028 819.5 539.668 819.5C547.308 819.5 557.243 819.016 565.404 818.519C569.455 818.271 573.016 818.024 575.564 817.839C576.209 817.792 576.789 817.749 577.294 817.711C577.786 817.674 578.208 817.642 578.552 817.615C578.901 817.589 579.169 817.568 579.349 817.553L579.552 817.537L579.601 817.533L579.613 817.532L579.615 817.532L582.628 817.29C654.6 729.437 697.367 667.208 767.6 561.95ZM675.209 402.329L707.916 430.446L767.962 368.538L771 365.406V332.241C760.171 336.949 747.854 341.232 734.359 345.066C684.201 359.318 615.488 368 540 368C464.512 368 395.799 359.318 345.641 345.066C332.146 341.232 319.829 336.949 309 332.241V366.147L311.319 368.538L371.512 430.598L404.396 402.329C408.673 398.652 414.282 396.931 419.924 397.632C429.873 398.869 455.09 401.871 482.599 404.146L483.443 403.229L500.501 384.688C506.182 378.514 514.188 375 522.579 375H558.129C566.429 375 574.358 378.438 580.03 384.497L596.103 401.666L598.322 404.037C625.316 401.776 649.891 398.849 659.68 397.632C665.322 396.931 670.932 398.652 675.209 402.329ZM748.234 680.591C755.075 670.677 762.584 659.795 771 647.64V806.642C759.573 814.925 745.086 822.704 727.88 829.656C697.53 841.92 659.515 851.291 616.789 856.47C684.51 772.932 699.219 751.617 748.207 680.628L748.234 680.591ZM791 322.01V787.827C797.804 778.942 801 770.099 801 761.5V315.127C799.169 316.563 797.256 317.945 795.28 319.273C793.904 320.197 792.477 321.11 791 322.01ZM279.014 280.43C279.005 280.622 279 280.812 279 281C279 286.53 283.03 294.044 295.873 302.671C308.355 311.056 327.076 319 351.107 325.828C399.032 339.445 465.819 348 540 348C614.181 348 680.968 339.445 728.893 325.828C752.924 319 771.645 311.056 784.127 302.671C796.97 294.044 801 286.53 801 281C801 280.812 800.995 280.622 800.986 280.43C799.045 281.838 797.022 283.181 794.942 284.46C780.026 293.634 759.108 301.535 734.144 308.029C684.066 321.056 615.43 329 540 329C464.57 329 395.934 321.056 345.856 308.029C320.892 301.535 299.974 293.634 285.058 284.46C282.978 283.181 280.955 281.838 279.014 280.43ZM784.465 267.424C786.548 266.142 788.388 264.895 790.008 263.688C788.294 262.271 786.341 260.816 784.127 259.329C771.645 250.944 752.924 243 728.893 236.172C680.968 222.555 614.181 214 540 214C465.819 214 399.032 222.555 351.107 236.172C327.076 243 308.355 250.944 295.873 259.329C293.659 260.816 291.706 262.271 289.992 263.688C291.612 264.895 293.452 266.142 295.535 267.424C307.335 274.681 324.701 281.579 346.838 287.595C396.885 273.546 465.106 265 540 265C613.153 265 679.926 273.153 729.615 286.617C730.5 287 731.5 287.5 732 287.909C754.692 281.82 772.459 274.808 784.465 267.424ZM687.341 297.536C645.291 289.643 594.646 285 540 285C485.346 285 434.703 289.644 392.659 297.536C434.728 304.755 485.367 309 540 309C594.633 309 645.272 304.755 687.341 297.536ZM500.002 245.833C500.234 251.351 495.946 256.006 490.43 256.299C456.24 258.115 424.414 261.771 396.28 266.868C390.845 267.853 385.582 264.346 384.502 258.929C383.422 253.513 386.935 248.239 392.369 247.251C421.578 241.942 454.445 238.174 489.591 236.316C495.106 236.024 499.77 240.315 500.002 245.833ZM364.502 263.326C365.799 268.694 362.495 274.084 357.159 275.507C356.272 275.743 355.391 275.981 354.517 276.221C349.19 277.681 343.608 274.71 342.002 269.426C340.396 264.142 343.375 258.545 348.699 257.078C349.942 256.736 351.195 256.397 352.459 256.061C357.796 254.644 363.204 257.957 364.502 263.326ZM735.372 848.2C759.639 838.395 780.071 826.557 794.885 812.969C791.948 817.98 787.923 823.01 782.747 828.022C770.25 840.124 751.644 851.483 727.836 861.235C680.268 880.719 613.863 893 540 893C466.137 893 399.732 880.719 352.164 861.235C328.356 851.483 309.75 840.124 297.253 828.022C292.077 823.01 288.052 817.98 285.116 812.969C299.929 826.557 320.361 838.395 344.628 848.2C395.129 868.605 464.208 881 540 881C615.792 881 684.871 868.605 735.372 848.2ZM515.219 398.229C517.113 396.171 519.782 395 522.579 395H558.129C560.896 395 563.539 396.146 565.43 398.166L572.661 405.89C561.14 406.571 549.878 407 539.802 407C530.067 407 519.223 406.599 508.109 405.958L515.219 398.229ZM483.935 627.321L537.961 673.035L594.658 627.401C590.297 627.747 585.89 628.073 581.485 628.37L576.128 632.745L551.29 653.029C544.561 658.525 534.867 658.429 528.247 652.802L503.326 631.619L499.62 628.47C494.376 628.125 489.121 627.737 483.935 627.321ZM539.802 630C542.455 630 545.183 629.972 547.971 629.918L539.93 636.484L532.218 629.929C534.803 629.975 537.336 630 539.802 630ZM417.454 417.479C417.45 417.482 417.443 417.487 417.433 417.496L342.001 482.341L420.116 600.656C437.37 602.798 498.543 610 539.802 610C581.062 610 642.235 602.798 659.488 600.656L737.604 482.341L662.171 417.496C662.162 417.487 662.155 417.482 662.15 417.479L662.148 417.48C645.316 419.572 582.644 427 539.802 427C496.961 427 434.289 419.572 417.457 417.48L417.454 417.479ZM429.382 452.349L429.378 452.353L429.369 452.36L379.558 494.829L441.401 574.516C456.224 576.075 505.774 581 539.302 581C572.831 581 622.38 576.075 637.204 574.516L699.047 494.829L649.235 452.36C649.23 452.355 649.226 452.352 649.222 452.349C633.283 453.813 574.468 458.995 539.302 458.995C504.137 458.995 445.321 453.813 429.382 452.349ZM416.393 437.14C420.484 433.653 425.792 431.935 431.201 432.432C447.33 433.914 505.215 438.995 539.302 438.995C573.39 438.995 631.275 433.914 647.404 432.432C652.812 431.935 658.121 433.653 662.211 437.14L712.023 479.61C720.156 486.544 721.4 498.648 714.847 507.091L652.989 586.797C649.682 591.059 644.774 593.83 639.348 594.401C624.708 595.942 574.075 601 539.302 601C504.53 601 453.897 595.942 439.256 594.401C433.83 593.83 428.923 591.059 425.615 586.797L363.758 507.091C357.205 498.648 358.449 486.544 366.582 479.61L416.393 437.14ZM563.865 724.082L555.818 717.65C546.326 710.064 532.845 710.064 523.353 717.65L515.306 724.082L506.702 729.748C496.554 736.431 492.389 749.252 496.67 760.623L500.3 770.265L503.03 780.198C506.251 791.914 517.156 799.838 529.294 799.28L539.585 798.807L549.876 799.28C562.014 799.838 572.92 791.914 576.141 780.198L578.871 770.265L582.501 760.623C586.782 749.252 582.617 736.431 572.469 729.748L563.865 724.082ZM560.782 764.387L564.719 753.929C565.872 750.867 564.75 747.415 562.018 745.616L552.685 739.469L543.956 732.493C541.4 730.45 537.771 730.45 535.215 732.493L526.485 739.469L517.152 745.616C514.42 747.415 513.299 750.867 514.452 753.929L518.389 764.387L521.351 775.163C522.218 778.317 525.154 780.45 528.422 780.3L539.585 779.787L550.749 780.3C554.017 780.45 556.953 778.317 557.82 775.163L560.782 764.387ZM536.553 739.651C538.057 736.82 542.115 736.82 543.619 739.651L546.84 745.717C547.419 746.806 548.466 747.567 549.68 747.781L556.445 748.97C559.603 749.526 560.857 753.384 558.628 755.69L553.855 760.628C552.998 761.515 552.598 762.746 552.77 763.967L553.729 770.768C554.177 773.943 550.894 776.328 548.013 774.921L541.841 771.907C540.733 771.366 539.438 771.366 538.331 771.907L532.159 774.921C529.278 776.328 525.995 773.943 526.443 770.768L527.402 763.967C527.574 762.746 527.174 761.515 526.317 760.628L521.544 755.69C519.315 753.384 520.569 749.526 523.727 748.97L530.492 747.781C531.706 747.567 532.753 746.806 533.332 745.717L536.553 739.651Z" fill="white"></path> </svg> 