<?xml version="1.0" encoding="UTF-8"?> <svg xmlns="http://www.w3.org/2000/svg" width="1080" height="1080" viewBox="0 0 1080 1080" fill="none"> <rect width="1080" height="1080" fill="black"></rect> <path fill-rule="evenodd" clip-rule="evenodd" d="M482.764 210.764C407.784 135.784 286.216 135.784 211.236 210.764C136.255 285.745 136.255 407.313 211.236 482.293L598.023 869.081C673.004 944.062 794.571 944.062 869.552 869.081C944.533 794.1 944.533 672.533 869.552 597.552L482.764 210.764ZM225.378 224.907C292.548 157.736 401.452 157.736 468.622 224.907L855.41 611.694C922.58 678.864 922.58 787.769 855.41 854.939C818.961 891.388 770.223 908.058 722.533 904.95C757.427 903.899 792.007 890.057 818.64 863.424C874.095 807.97 874.095 718.06 818.64 662.606L658.127 502.092C648.11 520.831 617.963 568.419 577.517 608.866C565.477 620.906 552.01 632.827 538.42 644.015L308.816 414.411C258.899 364.494 253.915 286.659 293.863 231.167C287.707 235.598 281.827 240.583 276.289 246.12C220.835 301.574 220.835 391.484 276.289 446.938L501.785 672.434C484.45 685.151 469.104 695.463 459.046 701.819L225.378 468.151C158.207 400.981 158.207 292.077 225.378 224.907Z" fill="white"></path> </svg> 